<?xml version="1.0" encoding="iso-8859-1"?>
<!-- Generator: Adobe Illustrator 19.0.0, SVG Export Plug-In . SVG Version: 6.00 Build 0)  -->
<svg version="1.1" id="Layer_1" xmlns="http://www.w3.org/2000/svg" xmlns:xlink="http://www.w3.org/1999/xlink" x="0px" y="0px"
	 viewBox="0 0 512 512" style="enable-background:new 0 0 512 512;" xml:space="preserve">
<g>
	<g>
		<path style="fill:#BD8366;" d="M503.322,386.17h-60.746c-4.799,0-8.678-3.888-8.678-8.678c0-4.79,3.879-8.678,8.678-8.678h60.746
			c4.799,0,8.678,3.888,8.678,8.678C512,382.282,508.121,386.17,503.322,386.17"/>
		<path style="fill:#BD8366;" d="M442.576,386.17c-4.799,0-8.678-3.888-8.678-8.678v-60.746c0-4.79,3.879-8.678,8.678-8.678
			c4.799,0,8.678,3.888,8.678,8.678v60.746C451.254,382.282,447.375,386.17,442.576,386.17"/>
		<path style="fill:#BD8366;" d="M52.068,160.543c-4.799,0-8.678-3.888-8.678-8.678v-43.39c0-4.79,3.879-8.678,8.678-8.678
			s8.678,3.888,8.678,8.678v43.39C60.746,156.655,56.867,160.543,52.068,160.543"/>
		<path style="fill:#BD8366;" d="M442.576,203.933c-4.799,0-8.678-3.888-8.678-8.678v-26.034c0-4.79,3.879-8.678,8.678-8.678
			c4.799,0,8.678,3.888,8.678,8.678v26.034C451.254,200.045,447.375,203.933,442.576,203.933"/>
		<path style="fill:#BD8366;" d="M52.068,351.458c-4.799,0-8.678-3.888-8.678-8.678v-60.746c0-4.79,3.879-8.678,8.678-8.678
			s8.678,3.888,8.678,8.678v60.746C60.746,347.57,56.867,351.458,52.068,351.458"/>
		<path style="fill:#BD8366;" d="M260.339,134.509c-4.799,0-8.678-3.888-8.678-8.678V30.373c0-4.79,3.879-8.678,8.678-8.678
			s8.678,3.888,8.678,8.678v95.458C269.017,130.621,265.138,134.509,260.339,134.509"/>
	</g>
	<path style="fill:#DD342E;" d="M269.017,21.691v52.068c-14.7-12.149-46.557-11.229-60.746,0c-14.188,11.229-37.367,12.149-52.068,0
		V21.691c14.7,12.149,37.879,11.229,52.068,0C222.46,10.462,254.421,9.793,269.017,21.691"/>
	<path style="fill:#C7CFE3;" d="M329.6,125.831h-52.068H173.562c58.576,55.687,57.552,150.71,0,208.271h103.971H329.6
		C387.161,276.541,388.177,181.517,329.6,125.831"/>
	<path style="fill:#AFB5CB;" d="M277.533,334.102c57.561-57.561,58.576-152.585,0-208.271h-52.068
		c58.576,55.687,57.561,150.71,0,208.271H277.533z"/>
	<polygon style="fill:#BD8366;" points="242.983,403.526 277.695,403.526 277.695,334.102 242.983,334.102 	"/>
	<path style="fill:#D69C77;" d="M373.153,368.814c0,19.187-15.525,34.712-34.712,34.712H199.593
		c-33.575,0-60.746-27.171-60.746-60.746L0,325.424l17.356,43.39l26.034,8.678l34.712,104.136h60.746l17.356,17.356h182.237
		c67.15,0,121.492-54.341,121.492-121.492v-8.678H373.153z"/>
	<path style="fill:#AFB5CB;" d="M51.906,151.865H8.681c31.996,57.084,37.688,73.225,0,130.169h43.225
		C89.36,226.851,84.613,208.948,51.906,151.865"/>
	<g>
		<path style="fill:#C7CFE3;" d="M95.154,151.865H51.929c31.996,57.084,37.688,73.225,0,130.169h43.225
			C132.608,226.851,127.861,208.948,95.154,151.865"/>
		<path style="fill:#C7CFE3;" d="M477.288,195.255h-69.424c32.004,57.084,37.697,73.225,0,130.17h69.424
			C514.742,270.241,509.995,252.338,477.288,195.255"/>
	</g>
</g>
<g>
</g>
<g>
</g>
<g>
</g>
<g>
</g>
<g>
</g>
<g>
</g>
<g>
</g>
<g>
</g>
<g>
</g>
<g>
</g>
<g>
</g>
<g>
</g>
<g>
</g>
<g>
</g>
<g>
</g>
</svg>
