<?xml version="1.0" encoding="iso-8859-1"?>
<!-- Generator: Adobe Illustrator 19.0.0, SVG Export Plug-In . SVG Version: 6.00 Build 0)  -->
<svg version="1.1" id="Capa_1" xmlns="http://www.w3.org/2000/svg" xmlns:xlink="http://www.w3.org/1999/xlink" x="0px" y="0px"
	 viewBox="0 0 512.001 512.001" style="enable-background:new 0 0 512.001 512.001;" xml:space="preserve">
<path style="fill:#B76035;" d="M374.991,95.041H137.007c-2.844,0-5.149-2.305-5.149-5.149V71.848c0-2.844,2.305-5.149,5.149-5.149
	h237.984c2.844,0,5.149,2.305,5.149,5.149v18.044C380.14,92.735,377.835,95.041,374.991,95.041z"/>
<path style="fill:#A04C27;" d="M374.991,95.041h-15.545V66.699h15.545c2.844,0,5.149,2.305,5.149,5.149v18.044
	C380.14,92.735,377.835,95.041,374.991,95.041z"/>
<path style="fill:#B76035;" d="M241.828,382.787V39.512c0-2.844,2.305-5.149,5.149-5.149h18.044c2.844,0,5.149,2.305,5.149,5.149
	v343.275H241.828z"/>
<path style="fill:#A04C27;" d="M255.999,382.787V34.363h9.022c2.844,0,5.149,2.305,5.149,5.149v343.275H255.999z"/>
<path style="fill:#FFDBA9;" d="M157.153,344.069v-29.386c0-2.802-2.241-5.094-5.043-5.148c-17.6-0.335-78.486-3.051-138.235-24.078
	c-2.794-0.983-5.836,0.613-6.64,3.464l-7.04,24.953c-0.737,2.611,0.67,5.344,3.227,6.249
	C22.417,326.851,97.482,351.523,157.153,344.069z"/>
<path style="fill:#FFC473;" d="M157.156,314.683v29.388c-5.138,0.638-10.39,1.04-15.714,1.236V310.76
	c0-0.546-0.072-1.081-0.196-1.596c4.52,0.216,8.186,0.319,10.863,0.371C154.911,309.586,157.156,311.882,157.156,314.683z"/>
<path style="fill:#FFDBA9;" d="M354.845,344.069v-29.386c0-2.802,2.241-5.094,5.043-5.148c17.6-0.335,78.486-3.051,138.235-24.078
	c2.794-0.983,5.836,0.613,6.64,3.464l7.04,24.953c0.736,2.611-0.67,5.344-3.227,6.249
	C489.581,326.851,414.516,351.523,354.845,344.069z"/>
<path style="fill:#FFC473;" d="M508.58,320.12c-2.646,0.937-6.384,2.224-11.018,3.728c0.052-0.68-0.021-1.38-0.216-2.08
	l-8.464-30.027c-0.298-1.05-0.844-1.956-1.565-2.677c3.593-1.133,7.198-2.337,10.802-3.604c2.801-0.989,5.839,0.608,6.642,3.46
	l7.043,24.96C512.544,316.485,511.134,319.214,508.58,320.12z"/>
<path style="fill:#B76035;" d="M122.183,472.279H11.843c-4.016,0-7.117-3.532-6.597-7.514l18.038-138.142l25.172,6.948
	l37.217,100.401C92.201,451.578,105.614,465.206,122.183,472.279z"/>
<path style="fill:#A04C27;" d="M122.187,472.282H98.153c-16.568-7.074-29.975-20.708-36.504-38.316
	c-3.427-9.244-6.855-18.487-10.282-27.731c-7.652-20.639-15.28-41.151-22.272-61.957c-0.678-2.017-1.666-3.987-2.571-5.918
	c-0.161-0.343-3.967-6.185-4.106-5.345c0.349-2.106,0.587-4.267,0.864-6.397l25.177,6.951l37.214,100.398
	C92.201,451.574,105.618,465.208,122.187,472.282z"/>
<path style="fill:#B76035;" d="M355.218,344.068l-3.04,17.795c-3.639,21.246-22.051,20.924-43.61,20.924H203.806
	c-21.559,0-39.971,0.322-43.61-20.924l-3.04-17.795c-35.84,4.48-77.232-2.638-108.699-10.498l37.217,100.401
	c9.729,26.245,34.766,43.664,62.755,43.664h107.105h1.308h107.105c27.988,0,53.026-17.419,62.755-43.664l37.217-100.401
	C432.45,341.43,391.058,348.548,355.218,344.068z"/>
<path style="fill:#A04C27;" d="M463.921,333.568l-37.224,100.398c-9.721,26.248-34.763,43.671-62.751,43.671h-30.49
	c27.988,0,53.02-17.423,62.751-43.671l34.609-93.365C442.533,338.573,453.747,336.112,463.921,333.568z"/>
<path style="fill:#FF4F19;" d="M349.618,276.25h-210.66c-3.948,0-6.586-4.091-4.934-7.677
	c51.709-112.189,6.482-173.533,6.482-173.533h222.648c0,0,46.468,63.026-8.648,178.144
	C353.608,275.061,351.699,276.25,349.618,276.25z"/>
<path style="fill:#E23D17;" d="M354.502,273.185c-0.896,1.874-2.801,3.069-4.881,3.069h-13.119c0.021-0.031-4.941-0.062-4.93-0.093
	c49.808-104.043,19.379-166.928,10.925-181.118h20.654C363.152,95.043,409.623,158.062,354.502,273.185z"/>
<g>
	<path style="fill:#FFDBA9;" d="M263.462,429.556H249.73c-0.035,0-0.069,0-0.104-0.001c-95.908-1.334-176.783-21.838-177.589-22.044
		c-4.012-1.031-6.428-5.117-5.398-9.129s5.118-6.427,9.129-5.4c0.79,0.203,79.996,20.26,174.014,21.574h13.63
		c94.116-1.316,173.224-21.371,174.013-21.574c4.007-1.025,8.1,1.387,9.13,5.398c1.031,4.013-1.386,8.1-5.398,9.131
		c-0.806,0.206-81.681,20.71-177.589,22.044C263.532,429.556,263.497,429.556,263.462,429.556z"/>
	<path style="fill:#FFDBA9;" d="M308.459,180.489l-2.42-10.717c-0.266-1.178-1.361-1.979-2.565-1.876l-25.512,2.187
		c-6.297,0.54-11.562-4.725-11.022-11.022l2.187-25.512c0.103-1.204-0.698-2.299-1.876-2.565l-10.72-2.42
		c-0.351-0.079-0.714-0.079-1.065,0l-10.717,2.42c-1.178,0.266-1.979,1.361-1.876,2.565l2.187,25.512
		c0.54,6.297-4.725,11.562-11.022,11.022l-25.512-2.187c-1.204-0.103-2.299,0.698-2.565,1.876l-2.42,10.717
		c-0.079,0.351-0.079,0.714,0,1.065l2.42,10.72c0.266,1.178,1.361,1.98,2.565,1.876l25.512-2.187
		c6.297-0.54,11.562,4.725,11.022,11.022l-2.187,25.512c-0.103,1.204,0.698,2.299,1.876,2.565l10.717,2.42
		c0.351,0.079,0.714,0.079,1.065,0l10.72-2.42c1.178-0.266,1.98-1.361,1.876-2.565l-2.187-25.512
		c-0.54-6.297,4.725-11.562,11.022-11.022l25.512,2.187c1.204,0.103,2.299-0.698,2.565-1.876l2.42-10.72
		C308.538,181.203,308.538,180.839,308.459,180.489z"/>
</g>
<g>
</g>
<g>
</g>
<g>
</g>
<g>
</g>
<g>
</g>
<g>
</g>
<g>
</g>
<g>
</g>
<g>
</g>
<g>
</g>
<g>
</g>
<g>
</g>
<g>
</g>
<g>
</g>
<g>
</g>
</svg>
